<?xml version="1.0" standalone="no"?><!DOCTYPE svg PUBLIC "-//W3C//DTD SVG 1.1//EN" "http://www.w3.org/Graphics/SVG/1.1/DTD/svg11.dtd"><svg t="1692890846420" class="icon" viewBox="0 0 1024 1024" version="1.1" xmlns="http://www.w3.org/2000/svg" p-id="26167" xmlns:xlink="http://www.w3.org/1999/xlink" width="200" height="200"><path d="M825.088 90.432H209.28a137.216 137.216 0 0 0-136.832 136.832v398.464c0 75.456 61.504 136.832 136.832 136.832h78.656l58.176 150.656c6.848 13.632 17.152 20.48 30.784 20.48 13.632 0 27.328-6.848 30.784-20.48l58.176-150.656h352.256c75.328 0 136.96-61.376 136.96-136.832V227.2c6.784-75.2-54.72-136.768-129.984-136.768z m68.352 535.232a68.48 68.48 0 0 1-68.352 68.416H448.704c-13.632 0-27.328 6.976-30.72 20.48l-37.696 92.48-37.568-92.416c-6.848-13.504-17.088-20.48-30.784-20.48H209.28a68.544 68.544 0 0 1-68.416-68.416V227.2c0-37.568 30.848-68.416 68.416-68.416h615.808c37.568 0 68.352 30.848 68.352 68.416v398.464z" fill="#2c2c2c" p-id="26168"></path><path d="M309.312 432m-48 0a48 48 0 1 0 96 0 48 48 0 1 0-96 0Z" fill="#2c2c2c" p-id="26169"></path><path d="M510.656 432m-48 0a48 48 0 1 0 96 0 48 48 0 1 0-96 0Z" fill="#2c2c2c" p-id="26170"></path><path d="M713.344 432m-48 0a48 48 0 1 0 96 0 48 48 0 1 0-96 0Z" fill="#2c2c2c" p-id="26171"></path></svg>