<?xml version="1.0" standalone="no"?><!DOCTYPE svg PUBLIC "-//W3C//DTD SVG 1.1//EN" "http://www.w3.org/Graphics/SVG/1.1/DTD/svg11.dtd"><svg t="1693120426361" class="icon" viewBox="0 0 1024 1024" version="1.1" xmlns="http://www.w3.org/2000/svg" p-id="1513" xmlns:xlink="http://www.w3.org/1999/xlink" width="200" height="200"><path d="M535.198324 0h69.53853v95.276816c124.175945 0.677323 248.351891-1.354647 373.205159 0.677324a40.6394 40.6394 0 0 1 45.154889 45.154889c1.919083 234.579649 0 469.272186 1.128872 703.851835-1.128872 24.044979 2.257744 50.686363-11.288722 72.022049-17.045971 12.417595-38.946092 11.288722-58.814243 11.288722H604.962628v95.276816h-72.925146C354.917429 990.924044 177.458715 960.557381 0 928.723184V95.502591C178.361812 63.555507 356.836512 32.51152 535.198324 0z" fill="#D24625" p-id="1514"></path><path d="M604.736854 130.949179v762.101642h383.816558V130.949179z m186.828354 144.834307a30.366663 30.366663 0 0 0 17.610407 4.289714 33.866167 33.866167 0 0 0 16.820196-3.612391 11.288722 11.288722 0 0 0 6.208797-9.595414 13.998016 13.998016 0 0 0-9.030978-12.19182c-1.919083-0.903098-8.12788-3.047955-18.852166-6.321684a167.637526 167.637526 0 0 1-22.577445-8.12788 21.335685 21.335685 0 0 1-11.288722-19.52949 22.577445 22.577445 0 0 1 11.288722-20.093926 51.815235 51.815235 0 0 1 52.379672 0 30.705325 30.705325 0 0 1 11.288722 23.367655h-15.239775a21.222798 21.222798 0 0 0-7.450557-12.869143 26.189836 26.189836 0 0 0-16.029985-3.951053 28.899129 28.899129 0 0 0-13.885129 2.596406 10.385625 10.385625 0 0 0-5.983023 10.046963 11.288722 11.288722 0 0 0 6.773234 9.821189 123.047073 123.047073 0 0 0 16.481534 5.983022 154.655496 154.655496 0 0 1 25.399626 9.482527 23.367655 23.367655 0 0 1 12.530481 20.884136 24.157866 24.157866 0 0 1-10.15985 20.545475 59.378679 59.378679 0 0 1-56.443611 0.564436A33.075956 33.075956 0 0 1 767.633117 259.640613h15.804211a22.577445 22.577445 0 0 0 8.12788 16.142873zM670.211443 243.836402a53.960093 53.960093 0 0 1 11.288722-34.995039 42.332709 42.332709 0 0 1 35.333701-15.352663 43.687355 43.687355 0 0 1 28.108919 8.918091A35.559475 35.559475 0 0 1 757.134605 225.774446H741.669055a22.577445 22.577445 0 0 0-9.030978-13.998016 29.124904 29.124904 0 0 0-16.707309-4.289714 26.189836 26.189836 0 0 0-22.577444 10.385624 41.994047 41.994047 0 0 0-7.111895 25.964062 42.897145 42.897145 0 0 0 6.999008 26.302723 31.72131 31.72131 0 0 0 40.300738 4.85415 29.463565 29.463565 0 0 0 9.708301-16.481534h15.46555a42.67137 42.67137 0 0 1-15.126888 26.528497 41.429611 41.429611 0 0 1-26.867159 8.918091 43.348694 43.348694 0 0 1-36.011024-15.126888 54.750303 54.750303 0 0 1-10.498512-34.995039z m236.047183 48.202844h-19.07794l-33.866167-96.631463h17.158858l26.528497 79.021056 26.528498-79.021056h17.158857z" fill="#FFFFFF" p-id="1515"></path><path d="M645.489141 365.980377h302.424871v110.290817H645.489141zM645.489141 530.682835h302.424871v110.290817H645.489141zM645.489141 695.385294h302.424871v110.290817H645.489141z" fill="#D24625" p-id="1516"></path><path d="M381.558814 583.965605l-3.27373 12.643369a93.244846 93.244846 0 0 1-29.689339 51.702348 84.891192 84.891192 0 0 1-52.266785 15.126888c-33.188844 0-57.685371-10.046963-72.925146-29.802227s-22.013008-48.541506-22.013008-86.697387 7.563444-66.039025 22.577444-85.907177 38.60743-31.495535 70.780289-31.495535a90.309778 90.309778 0 0 1 52.04101 13.094917 67.732334 67.732334 0 0 1 26.41561 41.542499l3.386617 12.530481h90.309778l-3.047955-19.416602a148.108037 148.108037 0 0 0-53.056994-96.518576 176.329842 176.329842 0 0 0-115.032081-36.57546c-62.313747 0-110.629479 21.222798-143.47966 62.765296-28.108919 35.672362-43.235806 82.859222-43.235807 139.980157s13.998016 104.759343 41.542499 139.302833c32.51152 41.429611 81.730349 62.426634 146.753389 62.426634A170.911256 170.911256 0 0 0 406.394003 712.092603a175.088083 175.088083 0 0 0 61.975085-108.033073l3.838166-20.093925z" fill="#FFFFFF" p-id="1517"></path></svg>