<?xml version="1.0" standalone="no"?><!DOCTYPE svg PUBLIC "-//W3C//DTD SVG 1.1//EN" "http://www.w3.org/Graphics/SVG/1.1/DTD/svg11.dtd"><svg t="1692884448161" class="icon" viewBox="0 0 1024 1024" version="1.1" xmlns="http://www.w3.org/2000/svg" p-id="12252" xmlns:xlink="http://www.w3.org/1999/xlink" width="200" height="200"><path d="M855.341176 548.141176s-6.023529-6.023529-6.023529-18.070588v-24.094117V481.882353c0-6.023529 0-12.047059 6.023529-18.070588l48.188236-48.188236c30.117647-12.047059 42.164706-54.211765 24.094117-96.37647-12.047059-24.094118-24.094118-48.188235-42.164705-66.258824-24.094118-36.141176-66.258824-48.188235-102.4-36.141176l-60.235295 18.070588c-6.023529 0-12.047059 0-18.070588-6.023529-12.047059-6.023529-24.094118-18.070588-36.141176-24.094118-6.023529-6.023529-12.047059-6.023529-12.047059-12.047059l-18.070588-60.235294c-12.047059-36.141176-42.164706-66.258824-84.329412-72.282353H469.835294c-42.164706 6.023529-72.282353 36.141176-78.305882 72.282353l-18.070588 60.235294c0 6.023529-6.023529 6.023529-12.047059 12.047059-12.047059 12.047059-24.094118 18.070588-36.141177 24.094118-12.047059 6.023529-18.070588 6.023529-18.070588 6.023529l-60.235294-18.070588c-36.141176-12.047059-78.305882 0-102.4 36.141176-18.070588 24.094118-36.141176 42.164706-48.188235 66.258824-18.070588 42.164706-6.023529 84.329412 24.094117 108.423529l48.188236 48.188236s6.023529 6.023529 6.023529 18.070588V542.117647c0 6.023529 0 12.047059-6.023529 18.070588l-48.188236 36.141177c-30.117647 24.094118-42.164706 66.258824-24.094117 108.423529 12.047059 24.094118 24.094118 48.188235 42.164705 66.258824 24.094118 36.141176 66.258824 48.188235 102.4 36.141176l60.235295-18.070588c6.023529 0 12.047059 0 18.070588 6.023529 12.047059 6.023529 24.094118 18.070588 36.141176 24.094118 6.023529 6.023529 12.047059 6.023529 12.047059 12.047059l18.070588 60.235294c12.047059 36.141176 42.164706 66.258824 84.329412 72.282353h84.329412c42.164706-6.023529 72.282353-36.141176 84.329412-72.282353l18.070588-60.235294c0-6.023529 6.023529-6.023529 12.047059-12.047059 12.047059-6.023529 24.094118-12.047059 36.141176-24.094118 6.023529-6.023529 12.047059-6.023529 18.070588-6.023529l60.235295 18.070588c36.141176 12.047059 78.305882 0 102.4-36.141176 18.070588-24.094118 30.117647-42.164706 42.164705-66.258824 18.070588-36.141176 6.023529-78.305882-18.070588-108.423529l-54.211765-48.188236z m-84.329411-36.141176v18.070588c0 30.117647 6.023529 60.235294 30.117647 84.329412l48.188235 48.188235c6.023529 6.023529 6.023529 6.023529 6.023529 12.047059-12.047059 18.070588-18.070588 36.141176-30.117647 54.211765 0 0-6.023529 6.023529-12.047058 0l-60.235295-18.070588c-30.117647-6.023529-66.258824 0-84.329411 18.070588-12.047059 6.023529-18.070588 12.047059-30.117647 18.070588-24.094118 12.047059-48.188235 36.141176-54.211765 66.258824l-18.070588 60.235294c0 6.023529-6.023529 6.023529-6.02353 6.023529h-60.235294s-6.023529 0-6.023529-6.023529l-18.070588-60.235294c-6.023529-30.117647-30.117647-54.211765-54.211765-66.258824-30.117647-12.047059-42.164706-18.070588-54.211765-24.094118-24.094118-18.070588-54.211765-24.094118-84.329412-18.070588l-60.235294 18.070588H210.823529c-12.047059-18.070588-24.094118-36.141176-30.117647-54.211764 0 0 0-6.023529 6.02353-12.047059l48.188235-48.188235c24.094118-24.094118 30.117647-54.211765 30.117647-84.329412v-18.070588-18.070589c0-30.117647-6.023529-60.235294-30.117647-84.329411l-54.211765-36.141177c-6.023529-6.023529-6.023529-6.023529-6.023529-12.047059L210.823529 301.176471s6.023529-6.023529 12.047059 0l60.235294 18.070588c30.117647 6.023529 66.258824 0 84.329412-18.070588 12.047059-6.023529 24.094118-12.047059 30.117647-18.070589 24.094118-12.047059 48.188235-36.141176 54.211765-66.258823l18.070588-60.235294c0-6.023529 6.023529-6.023529 6.02353-6.02353h60.235294s6.023529 0 6.023529 6.02353l18.070588 60.235294c6.023529 30.117647 30.117647 54.211765 54.211765 66.258823 18.070588 6.023529 30.117647 12.047059 42.164706 18.070589 24.094118 18.070588 54.211765 24.094118 84.329412 18.070588l60.235294-18.070588h12.047059c12.047059 18.070588 24.094118 36.141176 30.117647 54.211764 0 0 0 6.023529-6.02353 12.047059l-48.188235 48.188235c-24.094118 24.094118-30.117647 54.211765-30.117647 84.329412 12.047059 0 12.047059 6.023529 12.047059 12.047059z" fill="#ffffff" p-id="12253"></path><path d="M512 343.341176C415.623529 343.341176 343.341176 421.647059 343.341176 512s78.305882 168.658824 168.658824 168.658824 168.658824-78.305882 168.658824-168.658824S608.376471 343.341176 512 343.341176z m0 252.988236c-48.188235 0-84.329412-36.141176-84.329412-84.329412S463.811765 427.670588 512 427.670588s84.329412 36.141176 84.329412 84.329412S560.188235 596.329412 512 596.329412z" fill="#ffffff" p-id="12254"></path></svg>