<?xml version="1.0" standalone="no"?><!DOCTYPE svg PUBLIC "-//W3C//DTD SVG 1.1//EN" "http://www.w3.org/Graphics/SVG/1.1/DTD/svg11.dtd"><svg t="1692884387979" class="icon" viewBox="0 0 1024 1024" version="1.1" xmlns="http://www.w3.org/2000/svg" p-id="10298" xmlns:xlink="http://www.w3.org/1999/xlink" width="200" height="200"><path d="M789.2 552c-8.5 59.6-35.8 114.7-79.2 158-52.9 52.9-123.2 82-198 82-61.3 0-119.6-19.5-167.7-55.7l-99.6 99.6c72.6 60 165.8 96.1 267.4 96.1 218.5 0 398-166.8 418.1-380h-141z" fill="#3282FE" p-id="10299"></path><path d="M232 512c0-74.8 29.1-145.1 82-198 43.3-43.3 98.4-70.7 158-79.2V93.9C258.8 114 92 293.5 92 512c0 101.6 36.1 194.7 96.1 267.4l99.6-99.6C251.5 631.6 232 573.3 232 512z" fill="#FAD60E" p-id="10300"></path><path d="M552 93.9v140.9c59.6 8.5 114.7 35.8 158 79.2 43.3 43.3 70.7 98.4 79.2 158h140.9C911.2 272 752 112.8 552 93.9z" fill="#A6DB20" p-id="10301"></path><path d="M512 512m-197.7 0a197.7 197.7 0 1 0 395.4 0 197.7 197.7 0 1 0-395.4 0Z" fill="#F5461A" p-id="10302"></path></svg>