<?xml version="1.0" standalone="no"?><!DOCTYPE svg PUBLIC "-//W3C//DTD SVG 1.1//EN" "http://www.w3.org/Graphics/SVG/1.1/DTD/svg11.dtd"><svg t="1692890546403" class="icon" viewBox="0 0 1024 1024" version="1.1" xmlns="http://www.w3.org/2000/svg" p-id="5671" xmlns:xlink="http://www.w3.org/1999/xlink" width="200" height="200"><path d="M549.61981 133.022476l319.683047 203.605334A70.851048 70.851048 0 0 1 902.095238 396.361143v434.883047A70.89981 70.89981 0 0 1 831.146667 902.095238h-282.819048l0.024381-218.112h-71.826286v218.087619L192.853333 902.095238A70.89981 70.89981 0 0 1 121.904762 831.24419V390.241524c0-24.527238 12.678095-47.299048 33.54819-60.220953l318.659048-197.485714a70.972952 70.972952 0 0 1 75.50781 0.487619zM828.952381 828.952381V397.214476L511.488 195.047619 195.047619 391.119238V828.952381h211.309714v-216.551619h212.187429v216.527238L828.952381 828.952381z" p-id="5672" fill="#2c2c2c"></path></svg>