<?xml version="1.0" standalone="no"?><!DOCTYPE svg PUBLIC "-//W3C//DTD SVG 1.1//EN" "http://www.w3.org/Graphics/SVG/1.1/DTD/svg11.dtd"><svg t="1697459857067" class="icon" viewBox="0 0 1024 1024" version="1.1" xmlns="http://www.w3.org/2000/svg" p-id="10220" xmlns:xlink="http://www.w3.org/1999/xlink" width="200" height="200"><path d="M605.32079 142.690499h383.879586v726.336782H605.32079z" fill="#FFFFFF" p-id="10221"></path><path d="M1022.795861 153.888993A40.699906 40.699906 0 0 0 977.761054 108.372531c-124.146754-1.926623-248.654751 0-373.283161 0V0h-65.746002C359.074318 31.30762 179.537159 63.698965 0 95.488241v833.264346c177.490122 31.90969 355.100659 62.133584 532.349953 94.765757h72.248354v-118.607714h349.200376c19.988711-0.963311 42.024459 0.722484 59.002822-12.041392 13.486359-21.313264 9.994356-48.165569 11.198495-72.248354-1.685795-221.802446 0.842897-444.327375-1.204139-666.731891z m-34.197554 715.258702H604.718721V142.931326H988.598307z" fill="#733781" p-id="10222"></path><path d="M705.143932 250.220132v63.939793a31.428034 31.428034 0 0 1-8.669802 24.082784 48.165569 48.165569 0 0 1-31.187206 8.308561 43.228598 43.228598 0 0 1-28.176858-7.947319 26.852305 26.852305 0 0 1-9.873942-21.915334v-3.010348h20.109125v2.889934c0 10.837253 6.020696 16.25588 18.302917 16.25588a20.711195 20.711195 0 0 0 14.810912-4.575729 20.229539 20.229539 0 0 0 4.575729-14.690499v-63.337723zM780.161806 250.220132c29.501411 0 44.553151 9.633114 44.553152 29.019755s-15.05174 29.260583-44.914394 29.260583h-30.464722v36.124177h-20.109125v-94.404515z m-30.825964 45.034807h29.260583a40.699906 40.699906 0 0 0 19.62747-3.732832 13.365945 13.365945 0 0 0 6.14111-12.041392 12.763876 12.763876 0 0 0-6.381938-12.041392 38.291627 38.291627 0 0 0-19.386642-3.732832h-29.260583zM932.485419 256.481656a34.920038 34.920038 0 0 1 16.496707 24.082784h-20.349953a22.035748 22.035748 0 0 0-10.957667-13.606773 48.165569 48.165569 0 0 0-22.517403-4.455315 38.893697 38.893697 0 0 0-27.333961 9.031044 32.993415 32.993415 0 0 0-11.078081 26.852305 33.113829 33.113829 0 0 0 10.235184 25.16651 48.165569 48.165569 0 0 0 32.993414 9.633114 79.714017 79.714017 0 0 0 16.496708-1.685795 63.21731 63.21731 0 0 0 13.245531-4.334902v-19.507055h-32.511759v-13.245532h52.620885v40.097837a76.944497 76.944497 0 0 1-22.276576 8.91063 126.434619 126.434619 0 0 1-29.742239 3.251176 66.829727 66.829727 0 0 1-45.636877-14.329257 43.710254 43.710254 0 0 1-15.172154-34.438382 44.673565 44.673565 0 0 1 15.172154-34.920037 61.411101 61.411101 0 0 1 43.349012-14.570085 73.091251 73.091251 0 0 1 36.967075 8.067733z" fill="#733781" p-id="10223"></path><path d="M370.272813 329.693321v254.675447c0 37.689558-9.5127 65.866416-28.297272 84.289746s-46.720602 28.176858-83.446849 28.176858q-79.593603 0-104.639699-46.600189c-10.11477-18.302916-15.05174-51.055503-15.05174-98.137347h70.080903a187.604892 187.604892 0 0 0 6.984008 63.096896A36.124177 36.124177 0 0 0 252.869238 636.748824a38.171214 38.171214 0 0 0 36.124177-16.015052 75.619944 75.619944 0 0 0 6.502352-36.124177V329.693321z" fill="#FFFFFF" p-id="10224"></path><path d="M668.899341 656.25588H915.145814v147.747883H668.899341zM916.229539 402.904986h-248.052681v204.703669h248.052681z m-227.582314 20.470367H895.879586v124.387582l-31.187206-31.909689a19.627469 19.627469 0 0 0-7.465663-4.936971c-5.298213-1.685795-16.857949 9.392286-34.438382 32.993415-22.276576-22.758231-70.442145-71.285042-80.316087-69.840076-2.76952 0-6.984008 2.167451-12.884289 7.34525l-40.940734 36.124176z" fill="#733781" p-id="10225"></path><path d="M840.12794 474.310442a18.784572 18.784572 0 0 0 31.668862-13.486359 18.302916 18.302916 0 0 0-18.302917-18.182503 18.784572 18.784572 0 0 0-13.365945 31.668862z" fill="#733781" p-id="10226"></path></svg>