<?xml version="1.0" standalone="no"?><!DOCTYPE svg PUBLIC "-//W3C//DTD SVG 1.1//EN" "http://www.w3.org/Graphics/SVG/1.1/DTD/svg11.dtd"><svg t="1692890729504" class="icon" viewBox="0 0 1024 1024" version="1.1" xmlns="http://www.w3.org/2000/svg" p-id="18830" xmlns:xlink="http://www.w3.org/1999/xlink" width="200" height="200"><path d="M802.816 200.96l-187.733333-83.370667a257.877333 257.877333 0 0 0-206.336 0L221.184 200.96A200.533333 200.533333 0 0 0 96 382.890667v258.090666a200.533333 200.533333 0 0 0 125.184 181.930667l187.733333 83.370667a254.677333 254.677333 0 0 0 102.144 21.333333h1.962667a254.677333 254.677333 0 0 0 102.144-21.333333l187.733333-83.370667a200.533333 200.533333 0 0 0 125.184-181.930667V382.890667a200.533333 200.533333 0 0 0-125.269333-181.930667z m-368-24.874667a193.237333 193.237333 0 0 1 154.368 0l187.733333 83.370667a162.858667 162.858667 0 0 1 34.133334 20.522667L704 327.594667 398.848 192z m-187.733333 83.370667L320 227.114667 625.109333 362.666667l-61.909333 27.434666a133.376 133.376 0 0 1-102.656 0L212.949333 279.978667a165.077333 165.077333 0 0 1 34.176-20.522667z m0 504.96a137.472 137.472 0 0 1-87.082667-123.434667V382.890667a121.941333 121.941333 0 0 1 11.562667-51.2l263.125333 116.949333a186.112 186.112 0 0 0 45.312 12.8v399.317333a187.733333 187.733333 0 0 1-45.141333-12.8z m616.917333-123.434667a137.472 137.472 0 0 1-87.168 123.434667l-187.733333 83.370667a185.728 185.728 0 0 1-45.141334 12.8v-399.274667a186.112 186.112 0 0 0 45.312-12.8l263.125334-116.949333a121.941333 121.941333 0 0 1 11.562666 51.2z" fill="#2c2c2c" p-id="18831"></path></svg>