<?xml version="1.0" standalone="no"?><!DOCTYPE svg PUBLIC "-//W3C//DTD SVG 1.1//EN" "http://www.w3.org/Graphics/SVG/1.1/DTD/svg11.dtd"><svg t="1697459867659" class="icon" viewBox="0 0 1024 1024" version="1.1" xmlns="http://www.w3.org/2000/svg" p-id="11301" xmlns:xlink="http://www.w3.org/1999/xlink" width="200" height="200"><path d="M605.200376 141.847601h383.879586V868.184384H605.200376z" fill="#FFFFFF" p-id="11302"></path><path d="M1022.795861 153.888993A40.699906 40.699906 0 0 0 977.761054 108.372531c-124.146754-1.926623-248.654751 0-373.283161 0V0h-65.746002C359.074318 31.30762 179.537159 63.698965 0 95.488241v833.264346c177.490122 31.90969 355.100659 62.133584 532.349953 94.765757h72.248354v-118.607714h349.200376c19.988711-0.963311 42.024459 0.722484 59.002822-12.041392 13.486359-21.313264 9.994356-48.165569 11.198495-72.248354-1.685795-221.802446 0.842897-444.327375-1.204139-666.731891z m-34.197554 715.258702H604.718721V142.931326H988.598307z" fill="#0071C5" p-id="11303"></path><path d="M695.751646 244.079022c24.925682 0 37.689558 10.596425 37.689558 31.909689s-12.763876 32.150517-38.050799 32.150518h-25.76858v39.857008H652.643462v-103.917215z m-26.129821 49.490122h24.805268A27.454374 27.454374 0 0 0 710.442145 288.993415a16.135466 16.135466 0 0 0 5.298212-13.486359 15.412982 15.412982 0 0 0-5.418626-13.245532 26.491063 26.491063 0 0 0-16.376294-4.094073h-24.323612zM764.989652 244.079022l51.416745 74.89746v-74.89746h17.219191v103.917215h-16.135466l-51.8984-75.981185v75.981185h-17.580433v-103.917215zM931.160865 250.942615A38.652869 38.652869 0 0 1 945.128881 276.952023h-17.098778a23.360301 23.360301 0 0 0-9.392286-14.931327 32.391345 32.391345 0 0 0-19.025399-4.936971 28.417686 28.417686 0 0 0-23.119474 9.873942 42.506115 42.506115 0 0 0-9.512699 29.501411 42.98777 42.98777 0 0 0 8.428974 28.658514 34.920038 34.920038 0 0 0 28.056444 10.476011 52.861712 52.861712 0 0 0 13.968015-1.685795 51.537159 51.537159 0 0 0 11.198495-4.816557v-21.915334h-27.574788v-14.449671h44.553151V337.158984a62.735654 62.735654 0 0 1-18.904986 9.873942 86.457197 86.457197 0 0 1-25.16651 3.492003 48.165569 48.165569 0 0 1-38.532455-15.774223 54.788335 54.788335 0 0 1-12.88429-37.809972 56.594544 56.594544 0 0 1 12.88429-38.412042 44.793979 44.793979 0 0 1 36.124177-16.015051 49.851364 49.851364 0 0 1 32.030103 8.428974zM675.040452 656.25588h246.728127v147.747883H675.040452z" fill="#0071C5" p-id="11304"></path><path d="M183.029163 340.891816c63.21731 3.130762 139.800564-25.527752 192.662276 22.878645C425.301976 426.144873 412.056444 540.658514 337.158984 577.98683c-26.370649 13.847601-56.594544 12.041392-85.373471 10.957667v139.68015L182.908749 722.483537c-0.963311-127.036689-1.204139-254.314205 0.120414-381.591721z" fill="#FFFFFF" p-id="11305"></path><path d="M252.146754 405.313264c22.878645-0.963311 51.296331-5.298213 66.829728 16.737536a88.263405 88.263405 0 0 1 1.444967 78.148636c-13.245532 24.082785-43.228598 22.035748-66.348072 24.925682-2.528692-39.857008-2.287865-79.593603-1.926623-119.811854zM922.370649 401.460019H674.317968v204.703669h248.052681zM694.788335 421.44873h207.232361v124.748824l-31.187206-31.909689a18.784572 18.784572 0 0 0-7.465663-4.936971c-5.298213-1.565381-16.737535 9.392286-34.317968 32.993415-22.276576-22.758231-70.442145-71.164628-80.436501-69.719662-2.76952 0-6.984008 2.167451-12.884289 7.224836l-40.940734 36.124176z" fill="#0071C5" p-id="11306"></path><path d="M846.26905 472.745061a18.784572 18.784572 0 0 0 31.668862-13.365945 18.302916 18.302916 0 0 0-18.302917-18.302917 18.784572 18.784572 0 0 0-13.365945 31.668862z" fill="#0071C5" p-id="11307"></path></svg>