<?xml version="1.0" standalone="no"?><!DOCTYPE svg PUBLIC "-//W3C//DTD SVG 1.1//EN" "http://www.w3.org/Graphics/SVG/1.1/DTD/svg11.dtd"><svg t="1693120462902" class="icon" viewBox="0 0 1024 1024" version="1.1" xmlns="http://www.w3.org/2000/svg" p-id="1986" xmlns:xlink="http://www.w3.org/1999/xlink" width="200" height="200"><path d="M535.198324 0h69.53853v95.276816c124.175945 0.677323 248.351891-1.354647 373.205159 0.677324a40.6394 40.6394 0 0 1 45.154889 45.154889c1.919083 234.579649 0 469.272186 1.128872 703.851835-1.128872 24.044979 2.257744 50.686363-11.288722 72.022049-17.045971 12.417595-38.946092 11.288722-58.814243 11.288722H604.962628v95.276816h-72.925146C354.917429 990.924044 177.458715 960.557381 0 928.723184V95.502591C178.361812 63.555507 356.836512 32.51152 535.198324 0z" fill="#0071C5" p-id="1987"></path><path d="M470.175284 359.320031H110.516591v62.087973h148.78536v303.779517h62.087973V421.408004h148.78536v-62.087973zM604.736854 130.949179v762.101642h383.816558V130.949179z m218.662551 64.458604l22.577444 33.866167 22.577445-33.866167h19.416602l-32.285746 46.73531 34.769265 49.896153h-19.416602L846.654173 254.673575l-24.948077 37.365671H801.499283l34.543491-49.896153-32.285746-46.73531z m-29.915114 0v13.546467h-53.960093v26.754272H790.210561v13.546466h-50.686363v29.237791h56.443612v13.546467h-72.247823v-96.631463z m-160.525632 13.546467v-13.546467h79.021057v13.546467h-31.495536v83.084996h-15.804211v-83.084996z m339.45188 0h-31.72131v83.084996h-15.804211v-83.084996h-31.721309v-13.546467h79.021056z" fill="#FFFFFF" p-id="1988"></path><path d="M645.489141 365.980377h302.424871v47.638408H645.489141zM645.489141 447.823614h302.424871v47.638408H645.489141zM645.489141 529.66685h302.424871v47.638409H645.489141zM645.489141 611.510087h302.424871v47.638408H645.489141zM645.489141 693.353324h302.424871v47.638408H645.489141zM596.383199 775.19656h351.530813v47.638409H596.383199z" fill="#0071C5" p-id="1989"></path></svg>